# xmcd
#
# Track frame offsets:
# 150
# 12041
# 32166
# 53623
# 67696
# 82792
# 94920
# 112561
# 124287
# 132972
# 147033
#
# Disc length: 2251 seconds
#
# Revision: 0
# Processed by: cddbd v1.5.2PL0 Copyright (c) Steve Scherf et al.
# Submitted via: cdrdao 1.2.3rc2
#
DISCID=7b08c90b
DTITLE=Haralds Sīmanis - Es esmu rīts
DYEAR=2012
DGENRE=country
TTITLE0=Māls
TTITLE1=Es esmu rīts
TTITLE2=Tavs pirmais sniegs
TTITLE3=Divi sārti zvaniņi
TTITLE4=Bezgaismā
TTITLE5=Zied zāle
TTITLE6=Ne nieka
TTITLE7=Es aizeju
TTITLE8=No rīta
TTITLE9=Krustmāte baltā
TTITLE10=Ezers
EXTD=Lauska - Melo Records - Gauja records 2012
EXTD=
EXTD=Mūzikas autors: Haralds Sīmanis
EXTD=Vārdu autors: Arvīds Ulme
EXTD=
EXTD=Haralds Sīmanis: balss, ģitāra
EXTD=Andris Grunte: kontrabass
EXTD=Ilze Grunte: 12 stīgu ģitāra, mandolīna (3.,6.), kavala (5.), blokflauta (7., 9.), baglamass (2.)
EXTD=
EXTD=Aranžējumi un producēšana: Ilze Grunte
EXTD=Sakaņu ieraksta režija un mix: Eino Kolists
EXTD=Masterings: Mihails Medveģevs
EXTD=Ierakstīts: We Love Sound (www.welovesound.net)
EXTT0=
EXTT1=
EXTT2=
EXTT3=
EXTT4=
EXTT5=
EXTT6=
EXTT7=
EXTT8=
EXTT9=
EXTT10=
PLAYORDER=
